<?xml version="1.0" encoding="UTF-8" standalone="no"?>
<!-- Uploaded to: SVG Repo, www.svgrepo.com, Generator: SVG Repo Mixer Tools -->

<svg
   fill="#000000"
   width="800px"
   height="800px"
   viewBox="0 0 256 256"
   id="Flat"
   version="1.1"
   sodipodi:docname="triangle-thin.svg"
   inkscape:version="1.3 (0e150ed6c4, 2023-07-21)"
   xmlns:inkscape="http://www.inkscape.org/namespaces/inkscape"
   xmlns:sodipodi="http://sodipodi.sourceforge.net/DTD/sodipodi-0.dtd"
   xmlns="http://www.w3.org/2000/svg"
   xmlns:svg="http://www.w3.org/2000/svg">
  <defs
     id="defs1" />
  <sodipodi:namedview
     id="namedview1"
     pagecolor="#ffffff"
     bordercolor="#000000"
     borderopacity="0.25"
     inkscape:showpageshadow="2"
     inkscape:pageopacity="0.0"
     inkscape:pagecheckerboard="0"
     inkscape:deskcolor="#d1d1d1"
     inkscape:zoom="1.01125"
     inkscape:cx="400"
     inkscape:cy="400"
     inkscape:window-width="1920"
     inkscape:window-height="1113"
     inkscape:window-x="0"
     inkscape:window-y="0"
     inkscape:window-maximized="1"
     inkscape:current-layer="Flat" />
  <path
     d="M110.69055,37.98071a20.00016,20.00016,0,0,1,34.6189,0l87.97632,151.99243a19.99992,19.99992,0,0,1-17.30957,30.019H40.0238a19.99992,19.99992,0,0,1-17.30957-30.019L110.69055,37.98071M128,36a11.879,11.879,0,0,0-10.38562,5.98853L29.63806,193.981A11.99988,11.99988,0,0,0,40.0238,211.99219H215.9762A11.99988,11.99988,0,0,0,226.36194,193.981L138.38562,41.98853A11.879,11.879,0,0,0,128,36Z"
     id="path1"
     style="fill:#ffffff" />
</svg>
